<mxfile host="app.diagrams.net" modified="2024-04-11T08:27:01.008Z" agent="Mozilla/5.0 (Windows NT 10.0; Win64; x64) AppleWebKit/537.36 (KHTML, like Gecko) Chrome/123.0.0.0 Safari/537.36" etag="UQw0wcDgVT-trq3p4Vhh" version="24.2.2" type="github">
  <diagram name="Página-1" id="hKaSziC25QZdmmzATreF">
    <mxGraphModel dx="2512" dy="2134" grid="1" gridSize="10" guides="1" tooltips="1" connect="1" arrows="1" fold="1" page="1" pageScale="1" pageWidth="827" pageHeight="1169" math="0" shadow="0">
      <root>
        <mxCell id="0" />
        <mxCell id="1" parent="0" />
        <mxCell id="GwKnyPVX3diRxLGmR-Jv-9" style="edgeStyle=orthogonalEdgeStyle;rounded=0;orthogonalLoop=1;jettySize=auto;html=1;exitX=1;exitY=0.5;exitDx=0;exitDy=0;entryX=0;entryY=0.5;entryDx=0;entryDy=0;" edge="1" parent="1" source="2" target="4">
          <mxGeometry relative="1" as="geometry" />
        </mxCell>
        <mxCell id="GwKnyPVX3diRxLGmR-Jv-18" value="Instacia JS de Fr&lt;span style=&quot;font-size: 12px; text-wrap: wrap; background-color: rgb(251, 251, 251);&quot;&gt;ont-recomendador-talleres&lt;/span&gt;&amp;nbsp;" style="edgeLabel;html=1;align=center;verticalAlign=middle;resizable=0;points=[];" vertex="1" connectable="0" parent="GwKnyPVX3diRxLGmR-Jv-9">
          <mxGeometry x="-0.2819" y="1" relative="1" as="geometry">
            <mxPoint as="offset" />
          </mxGeometry>
        </mxCell>
        <mxCell id="2" value="front-cc-autospres" style="whiteSpace=wrap;strokeWidth=2;" parent="1" vertex="1">
          <mxGeometry x="-20" y="-60" width="148" height="34" as="geometry" />
        </mxCell>
        <mxCell id="GwKnyPVX3diRxLGmR-Jv-13" style="edgeStyle=orthogonalEdgeStyle;rounded=0;orthogonalLoop=1;jettySize=auto;html=1;entryX=0.5;entryY=0;entryDx=0;entryDy=0;" edge="1" parent="1" source="3" target="GwKnyPVX3diRxLGmR-Jv-12">
          <mxGeometry relative="1" as="geometry" />
        </mxCell>
        <mxCell id="GwKnyPVX3diRxLGmR-Jv-14" value="CREAR AVISO&lt;div&gt;LLAMADA API&lt;/div&gt;" style="edgeLabel;html=1;align=center;verticalAlign=middle;resizable=0;points=[];" vertex="1" connectable="0" parent="GwKnyPVX3diRxLGmR-Jv-13">
          <mxGeometry x="0.0484" y="-4" relative="1" as="geometry">
            <mxPoint as="offset" />
          </mxGeometry>
        </mxCell>
        <mxCell id="3" value="front-alta-siniestros" style="whiteSpace=wrap;strokeWidth=2;" parent="1" vertex="1">
          <mxGeometry x="198" y="90" width="158" height="34" as="geometry" />
        </mxCell>
        <mxCell id="GwKnyPVX3diRxLGmR-Jv-16" style="edgeStyle=orthogonalEdgeStyle;rounded=0;orthogonalLoop=1;jettySize=auto;html=1;entryX=0.5;entryY=1;entryDx=0;entryDy=0;" edge="1" parent="1" source="4" target="GwKnyPVX3diRxLGmR-Jv-15">
          <mxGeometry relative="1" as="geometry" />
        </mxCell>
        <mxCell id="GwKnyPVX3diRxLGmR-Jv-17" value="Compartir Busqueda&lt;div&gt;LLAMADA API&lt;/div&gt;" style="edgeLabel;html=1;align=center;verticalAlign=middle;resizable=0;points=[];" vertex="1" connectable="0" parent="GwKnyPVX3diRxLGmR-Jv-16">
          <mxGeometry x="0.0595" relative="1" as="geometry">
            <mxPoint x="1" as="offset" />
          </mxGeometry>
        </mxCell>
        <mxCell id="4" value="front-recomendador-talleres" style="whiteSpace=wrap;strokeWidth=2;" parent="1" vertex="1">
          <mxGeometry x="406" y="-80" width="221" height="34" as="geometry" />
        </mxCell>
        <mxCell id="5" value="buscador" style="whiteSpace=wrap;strokeWidth=2;" parent="1" vertex="1">
          <mxGeometry x="720" y="-114" width="80" height="34" as="geometry" />
        </mxCell>
        <mxCell id="6" value="" style="curved=1;startArrow=none;endArrow=block;exitX=0.9363224402286903;exitY=1;entryX=-0.0011867088607594937;entryY=0.5;" parent="1" source="2" target="3" edge="1">
          <mxGeometry relative="1" as="geometry">
            <Array as="points">
              <mxPoint x="173" y="43" />
            </Array>
          </mxGeometry>
        </mxCell>
        <mxCell id="GwKnyPVX3diRxLGmR-Jv-19" value="Instacia JS de Fr&lt;span style=&quot;font-size: 12px; text-wrap: wrap; background-color: rgb(251, 251, 251);&quot;&gt;ont-alta-siniestros&lt;/span&gt;" style="edgeLabel;html=1;align=center;verticalAlign=middle;resizable=0;points=[];" vertex="1" connectable="0" parent="6">
          <mxGeometry x="-0.1588" relative="1" as="geometry">
            <mxPoint as="offset" />
          </mxGeometry>
        </mxCell>
        <mxCell id="8" value="" style="curved=1;startArrow=none;endArrow=block;exitX=0.9996044303797469;exitY=0.5;entryX=0.09856041159067173;entryY=1;" parent="1" source="3" target="4" edge="1">
          <mxGeometry relative="1" as="geometry">
            <Array as="points">
              <mxPoint x="390" y="20" />
            </Array>
          </mxGeometry>
        </mxCell>
        <mxCell id="GwKnyPVX3diRxLGmR-Jv-20" value="&lt;br&gt;&lt;span style=&quot;color: rgb(0, 0, 0); font-family: Helvetica; font-size: 11px; font-style: normal; font-variant-ligatures: normal; font-variant-caps: normal; font-weight: 400; letter-spacing: normal; orphans: 2; text-align: center; text-indent: 0px; text-transform: none; widows: 2; word-spacing: 0px; -webkit-text-stroke-width: 0px; white-space: nowrap; background-color: rgb(255, 255, 255); text-decoration-thickness: initial; text-decoration-style: initial; text-decoration-color: initial; display: inline !important; float: none;&quot;&gt;Instacia JS de Fr&lt;/span&gt;&lt;span style=&quot;forced-color-adjust: none; color: rgb(0, 0, 0); font-family: Helvetica; font-style: normal; font-variant-ligatures: normal; font-variant-caps: normal; font-weight: 400; letter-spacing: normal; orphans: 2; text-align: center; text-indent: 0px; text-transform: none; widows: 2; word-spacing: 0px; -webkit-text-stroke-width: 0px; white-space: normal; text-decoration-thickness: initial; text-decoration-style: initial; text-decoration-color: initial; font-size: 12px; background-color: rgb(251, 251, 251);&quot;&gt;ont-recomendador-talleres&lt;/span&gt;&lt;span style=&quot;color: rgb(0, 0, 0); font-family: Helvetica; font-size: 11px; font-style: normal; font-variant-ligatures: normal; font-variant-caps: normal; font-weight: 400; letter-spacing: normal; orphans: 2; text-align: center; text-indent: 0px; text-transform: none; widows: 2; word-spacing: 0px; -webkit-text-stroke-width: 0px; white-space: nowrap; background-color: rgb(255, 255, 255); text-decoration-thickness: initial; text-decoration-style: initial; text-decoration-color: initial; display: inline !important; float: none;&quot;&gt;&amp;nbsp;&lt;/span&gt;&lt;br&gt;dentro de front-alta-siniestro" style="edgeLabel;html=1;align=center;verticalAlign=middle;resizable=0;points=[];" vertex="1" connectable="0" parent="8">
          <mxGeometry x="-0.1193" y="-4" relative="1" as="geometry">
            <mxPoint as="offset" />
          </mxGeometry>
        </mxCell>
        <mxCell id="9" value="" style="curved=1;startArrow=none;endArrow=block;exitX=0.9981617647058824;exitY=0.5;entryX=-0.005078125;entryY=0.5;" parent="1" source="4" target="5" edge="1">
          <mxGeometry relative="1" as="geometry">
            <Array as="points" />
          </mxGeometry>
        </mxCell>
        <mxCell id="GwKnyPVX3diRxLGmR-Jv-23" style="edgeStyle=orthogonalEdgeStyle;rounded=0;orthogonalLoop=1;jettySize=auto;html=1;entryX=1;entryY=0.5;entryDx=0;entryDy=0;" edge="1" parent="1" source="GwKnyPVX3diRxLGmR-Jv-10" target="3">
          <mxGeometry relative="1" as="geometry" />
        </mxCell>
        <mxCell id="GwKnyPVX3diRxLGmR-Jv-10" value="BOTÓN&lt;div&gt;CREAR AVISO&lt;/div&gt;" style="ellipse;whiteSpace=wrap;html=1;aspect=fixed;" vertex="1" parent="1">
          <mxGeometry x="500" y="100" width="80" height="80" as="geometry" />
        </mxCell>
        <mxCell id="GwKnyPVX3diRxLGmR-Jv-12" value="api-alta-siniestros-bff" style="whiteSpace=wrap;html=1;aspect=fixed;" vertex="1" parent="1">
          <mxGeometry x="198" y="240" width="142" height="142" as="geometry" />
        </mxCell>
        <mxCell id="GwKnyPVX3diRxLGmR-Jv-15" value="api-recomendador&lt;span style=&quot;background-color: initial;&quot;&gt;-bff&lt;/span&gt;" style="whiteSpace=wrap;html=1;aspect=fixed;" vertex="1" parent="1">
          <mxGeometry x="445.5" y="-390" width="142" height="142" as="geometry" />
        </mxCell>
      </root>
    </mxGraphModel>
  </diagram>
</mxfile>
